<?xml version="1.0" encoding="utf-8"?>
<!-- Uploaded to: SVG Repo, www.svgrepo.com, Generator: SVG Repo Mixer Tools -->
<svg width="800px" height="800px" viewBox="0 0 1024 1024" class="icon"  version="1.1" xmlns="http://www.w3.org/2000/svg"><path d="M554.445166 196.193834h-83.958596v83.958597h83.958596v-83.958597z m-26.621018 55.289808h-28.668789v-28.668789h28.668789v28.668789zM596.424464 727.590318v13.310509h-167.917193v-13.310509h-26.621018v23.00056c0 11.570928 11.861711 18.978738 23.432639 18.978738h181.863536c11.570928 0 17.909802-7.406786 17.909802-18.978738v-23.00056h-28.667766z" fill="#FFB612" /><path d="M485.844849 461.380133h-225.254771V337.900587c0-7.694498 10.144656-15.768858 17.839154-15.768858h195.85288c7.694498 0 11.561713 8.07436 11.561713 15.768858v123.479546zM764.341658 461.380133h-223.207001V337.900587c0-7.694498 9.391076-15.768858 17.085574-15.768858h195.852881c7.694498 0 10.268546 8.07436 10.268546 15.768858v123.479546z" fill="#E0E0E0" /><path d="M609.734974 727.590318v23.00056c0 3.846737 1.295215 3.620459-2.551523 3.620458H425.319916c-3.846737 0-10.12213 0.227303-10.12213-3.620458v-23.00056" fill="#FFB612" /><path d="M78.33849 754.211336h112.627386v28.668789h-112.627386zM834.989745 754.211336h111.603501v28.668789h-111.603501zM891.303438 727.590318h-28.668789V267.952837c0-23.14288-15.470907-45.137985-38.613787-45.137984h-615.53938c-23.14288 0-46.184395 21.995105-46.184395 45.137984v459.637481h-26.621019V267.952837c0-38.56976 34.238725-71.759003 72.805414-71.759003h615.53938c38.566689 0 67.282576 33.188219 67.282576 71.759003v459.637481z" fill="#262626" /><path d="M907.957957 824.859424H124.544387c-30.854784 0-59.516406-22.429232-59.516406-53.284016v-27.978691c0-15.430976 16.10674-31.364679 31.537716-31.364679h839.371974c15.430976 0 23.967108 15.933703 23.967108 31.364679v27.978691c-0.001024 30.855808-21.092038 53.284016-51.946822 53.284016z m-814.261187-83.958597v30.674581c0 15.430976 15.416641 24.615227 30.847617 24.615227h783.41357c15.430976 0 25.32478-9.184251 25.324779-24.615227v-30.674581h-839.585966zM834.989745 685.61102h-644.023869V295.931528c0-23.14288 22.352441-44.447886 45.49532-44.447886h559.580975c23.14288 0 38.947574 21.305006 38.947574 44.447886v389.679492z m-615.35508-28.66879h586.686291V295.931528c0-7.714976-2.566881-15.779097-10.278785-15.779097H236.461196c-7.711904 0-16.826531 8.064121-16.826531 15.779097v361.010702z" fill="#262626" /><path d="M260.590078 489.025037h225.254771v27.644904h-225.254771zM302.569376 545.33873h141.296175v27.644904h-141.296175zM541.134657 489.025037h223.207001v27.644904h-223.207001zM583.113955 545.33873h139.248404v27.644904h-139.248404z" fill="#262626" /></svg>